<?xml version="1.0" standalone="no"?>
<!DOCTYPE svg PUBLIC "-//W3C//DTD SVG 20010904//EN"
        "http://www.w3.org/TR/2001/REC-SVG-20010904/DTD/svg10.dtd">
<svg version="1.0" xmlns="http://www.w3.org/2000/svg"
     width="1280.000000pt" height="1086.000000pt" viewBox="0 0 1280.000000 1086.000000"
     preserveAspectRatio="xMidYMid meet">


    <g transform="translate(0.000000,1086.000000) scale(0.100000,-0.100000)"
       fill="#303f9f" stroke="none">
        <path transform="scale(-1,1) translate(-12800,0)" d="M3920 10565 l0 -295 335 0 335 0 0 -800 0 -800 -1807 -2 -1808 -3 -3
-297 -2 -298 325 0 325 0 0 -2355 0 -2355 -415 0 -415 0 0 -175 0 -175 -395 0
-395 0 0 -85 0 -85 393 -2 392 -3 5 -307 5 -308 658 3 c361 1 657 1 657 0 0
-2 -15 -26 -34 -55 -224 -352 -281 -797 -151 -1194 156 -478 560 -839 1058
-946 136 -29 407 -31 540 -5 587 118 1035 579 1132 1165 21 125 16 395 -9 507
-36 160 -101 323 -181 451 -25 40 -45 73 -45 75 0 2 232 4 515 4 283 0 515 -2
515 -4 0 -2 -22 -40 -50 -85 -232 -385 -265 -867 -87 -1282 130 -303 379 -562
682 -709 125 -61 194 -85 338 -117 133 -30 394 -32 531 -5 293 59 523 182 737
396 210 210 328 429 391 725 30 145 30 389 -1 536 -38 180 -99 335 -184 468
-26 40 -47 73 -47 75 0 1 234 2 520 2 286 0 520 -1 520 -2 0 -1 -16 -25 -36
-55 -88 -132 -168 -336 -200 -510 -24 -129 -24 -371 0 -498 80 -416 331 -767
701 -979 224 -128 494 -191 760 -177 639 33 1173 496 1311 1136 26 120 26 420
0 540 -37 174 -105 340 -192 478 -19 29 -34 56 -34 60 0 4 380 6 845 4 l845
-2 0 570 0 570 -230 0 -230 0 0 640 0 640 60 0 60 0 0 50 0 50 -440 0 -440 0
0 -50 0 -50 65 0 65 0 0 -640 0 -640 -195 0 -195 0 0 2355 0 2355 325 0 325 0
0 300 0 300 -1807 0 -1808 0 0 797 0 798 338 3 337 2 0 295 0 295 -2555 0
-2555 0 0 -295z m8320 -6565 l0 -640 -215 0 -215 0 0 640 0 640 215 0 215 0 0
-640z" />
    </g>
    <!--<rect x="200" y="300" width="867" height="300" fill="white" />-->
</svg>
