<?xml version="1.0" standalone="no"?>
<!DOCTYPE svg PUBLIC "-//W3C//DTD SVG 20010904//EN"
        "http://www.w3.org/TR/2001/REC-SVG-20010904/DTD/svg10.dtd">
<svg version="1.0" xmlns="http://www.w3.org/2000/svg"
     width="1280.000000pt" height="1119.000000pt" viewBox="0 0 1280.000000 1119.000000"
     preserveAspectRatio="xMidYMid meet">
    <g transform="translate(0.000000,1119.000000) scale(0.100000,-0.100000)"
       fill="#303f9f" stroke="none">
        <path transform="scale(-1,1) translate(-12800,0)" d="M5840 10710 l0 -480 255 0 255 0 0 -1450 0 -1450 -1860 0 -1860 0 0
549 0 549 53 30 c71 40 152 129 187 204 42 90 52 175 48 416 -3 187 -5 213
-21 229 -17 17 -61 18 -711 21 -690 2 -693 2 -719 -19 l-27 -20 0 -233 c0
-128 5 -258 10 -287 24 -131 126 -265 243 -322 l57 -28 0 -543 0 -544 -242 -5
c-275 -5 -314 -11 -463 -82 -212 -99 -352 -261 -404 -466 l-17 -69 -32 45
c-63 89 -135 114 -332 115 -117 0 -130 -9 -130 -98 -1 -64 -2 -68 -33 -87 -19
-12 -44 -44 -62 -79 l-30 -60 0 -241 0 -241 30 -60 c18 -35 43 -67 62 -79 29
-18 32 -25 33 -68 0 -87 1 -87 158 -87 178 0 203 7 275 81 l57 58 0 -1102 c0
-1010 3 -1169 25 -1238 6 -18 -3 -19 -299 -19 l-306 0 0 -595 0 -595 629 0
629 0 -45 -67 c-98 -146 -172 -325 -215 -514 -20 -89 -23 -131 -23 -299 0
-168 3 -210 23 -299 65 -289 197 -534 397 -736 502 -509 1280 -589 1877 -193
121 81 324 282 400 398 106 162 189 353 221 512 l13 63 545 3 544 2 12 -62
c47 -240 191 -511 376 -705 216 -226 479 -371 785 -435 88 -18 139 -22 287
-22 199 0 308 17 480 76 476 160 863 597 965 1086 l13 62 542 0 543 0 17 -77
c58 -260 196 -511 390 -708 501 -509 1280 -589 1877 -193 121 80 324 282 400
398 116 176 199 379 234 570 24 130 24 390 0 520 -33 184 -115 390 -215 543
l-51 77 380 0 380 0 0 595 c0 588 0 595 -20 595 -20 0 -20 7 -20 3340 l0 3340
195 0 195 0 0 480 0 480 -3480 0 -3480 0 0 -480z m5050 -2100 l0 -1030 -1657
2 -1658 3 -3 1028 -2 1027 1660 0 1660 0 0 -1030z m-5597 -6262 c-4 -7 -24
-38 -44 -68 -146 -220 -239 -536 -239 -814 l0 -51 -519 0 -518 0 -6 121 c-14
275 -96 532 -238 750 l-49 74 811 0 c646 0 809 -3 802 -12z m3970 -55 c-145
-217 -228 -472 -240 -738 l-6 -140 -521 2 -521 3 -7 132 c-7 152 -26 260 -69
390 -34 105 -107 256 -167 346 -23 35 -42 65 -42 68 0 2 364 4 809 4 l809 0
-45 -67z"/>
    </g>
</svg>
